<svg viewBox="0 0 200 200" xmlns="http://www.w3.org/2000/svg">
  <defs>
    <radialGradient id="bgGlowN3" cx="50%" cy="45%" r="65%">
      <stop offset="0%" stop-color="#3a2a4a"/>
      <stop offset="100%" stop-color="#170f20"/>
    </radialGradient>
  </defs>
  <circle cx="100" cy="100" r="94" fill="url(#bgGlowN3)" stroke="#8a2a2a" stroke-width="6"/>
  <!-- hero silhouette -->
  <circle cx="100" cy="80" r="24" fill="#cbb8e0"/>
  <path d="M62 155 C 62 120 78 108 100 108 C 122 108 138 120 138 155 Z" fill="#cbb8e0"/>
  <!-- chains crossing -->
  <g stroke="#5a4a70" stroke-width="7" fill="none" stroke-linecap="round">
    <line x1="55" y1="95" x2="145" y2="140"/>
    <line x1="145" y1="95" x2="55" y2="140"/>
  </g>
  <g fill="none" stroke="#8a7ab0" stroke-width="4">
    <circle cx="65" cy="100" r="7"/>
    <circle cx="85" cy="110" r="7"/>
    <circle cx="105" cy="120" r="7"/>
    <circle cx="125" cy="130" r="7"/>
    <circle cx="135" cy="100" r="7"/>
    <circle cx="115" cy="110" r="7"/>
    <circle cx="95" cy="120" r="7"/>
    <circle cx="75" cy="130" r="7"/>
  </g>
  <!-- stun stars above head -->
  <g fill="#ffe28a">
    <path d="M70 45 l3 8 l8 3 l-8 3 l-3 8 l-3 -8 l-8 -3 l8 -3 z"/>
    <path d="M130 45 l3 8 l8 3 l-8 3 l-3 8 l-3 -8 l-8 -3 l8 -3 z"/>
  </g>
</svg>
